<svg width="46" height="16" viewBox="0 0 46 16" fill="none" xmlns="http://www.w3.org/2000/svg">
<path d="M45.6636 4.98157L38.128 12.7465C38.0383 12.8387 37.9411 12.9038 37.8364 12.9419C37.7318 12.9806 37.6196 13 37.5 13C37.3804 13 37.2682 12.9806 37.1636 12.9419C37.0589 12.9038 36.9617 12.8387 36.872 12.7465L29.314 4.98157C29.1047 4.76651 29 4.4977 29 4.17512C29 3.85254 29.1121 3.57604 29.3364 3.34562C29.5607 3.11521 29.8223 3 30.1214 3C30.4204 3 30.6821 3.11521 30.9063 3.34562L37.5 10.1198L44.0937 3.34562C44.303 3.13057 44.5608 3.02304 44.867 3.02304C45.1738 3.02304 45.4393 3.13825 45.6636 3.36866C45.8879 3.59908 46 3.8679 46 4.17511C46 4.48233 45.8879 4.75115 45.6636 4.98157Z" fill="#302929"/>
<path d="M3.712 7.312H9.104V9.328H3.712V7.312ZM3.904 11.92H10V14H1.328V2.8H9.792V4.88H3.904V11.92ZM12.0624 14V2.8H14.2064L20.8144 10.864H19.7744V2.8H22.3344V14H20.2064L13.5824 5.936H14.6224V14H12.0624Z" fill="#302929"/>
</svg>
